<svg id="Group_870" data-name="Group 870" xmlns="http://www.w3.org/2000/svg" width="182.456" height="186.164" viewBox="0 0 182.456 186.164">
  <path id="Path_231" data-name="Path 231" d="M2555.057,3766.786s-2.086-11.473,6.579-19.095,14.361-6.579,21.5-6.5,15.4-1.524,19.095-6.1,3.611-5.7,4.894-5.616,3.851,4.091,4.734,11.713,1.043,20.7-4.734,28.883-15.564,18.533-30.567,17.33-17.49-9.467-17.49-9.467a18.866,18.866,0,0,0-5.857,6.178c-2.567,4.252-4.092,8.1-7.542,6.819s-3.209-4.894-.4-8.986a46.342,46.342,0,0,1,18.854-16.206c10.189-4.653,22.224-5.375,24.711-5.375s3.29-3.69.642-3.851a49.292,49.292,0,0,0-20.057,2.808C2559.63,3762.775,2555.057,3766.786,2555.057,3766.786Z" transform="translate(-2489.256 -3658.463)" fill="#66c4b2"/>
  <g id="Group_869" data-name="Group 869" transform="translate(0)">
    <path id="Path_232" data-name="Path 232" d="M198.281,26.58a5.608,5.608,0,0,0-7.01,3.712L186.515,45.76,170.657,18.292a36.577,36.577,0,0,0-63.355,0L93.56,42.087a7.806,7.806,0,1,0,13.522,7.8l13.741-23.8a20.968,20.968,0,0,1,36.317,0l15.273,26.453-14.649-4.5a5.609,5.609,0,1,0-3.3,10.722l30.99,9.527a5.544,5.544,0,0,0,1.649.249,5.613,5.613,0,0,0,5.361-3.961l9.527-30.99A5.606,5.606,0,0,0,198.281,26.58Z" transform="translate(-47.383 0)" fill="#999"/>
    <path id="Path_233" data-name="Path 233" d="M222.809,271.095a5.606,5.606,0,0,0,.288-7.927l-11.015-11.849H243.8a36.578,36.578,0,0,0,31.678-54.868l-13.741-23.8a7.806,7.806,0,1,0-13.522,7.8l13.741,23.8A20.968,20.968,0,0,1,243.8,235.71H213.253l11.224-10.434a5.609,5.609,0,0,0-7.639-8.215l-23.746,22.078a5.6,5.6,0,0,0-.288,7.927l22.078,23.746A5.611,5.611,0,0,0,222.809,271.095Z" transform="translate(-97.984 -86.433)" fill="#999"/>
    <path id="Path_234" data-name="Path 234" d="M.14,153.18a5.611,5.611,0,0,0,6.722,4.215l15.771-3.615L6.774,181.248a36.578,36.578,0,0,0,31.678,54.868H65.934a7.8,7.8,0,0,0,0-15.61H38.451a20.968,20.968,0,0,1-18.161-31.453L35.564,162.6l3.424,14.936a5.61,5.61,0,0,0,10.936-2.507l-7.244-31.6a5.532,5.532,0,0,0-.61-1.551,5.608,5.608,0,0,0-6.112-2.659l-31.6,7.239A5.611,5.611,0,0,0,.14,153.18Z" transform="translate(0.003 -71.234)" fill="#999"/>
  </g>
</svg>
