<?xml version="1.0" encoding="utf-8"?>
<!-- Generator: Adobe Illustrator 23.0.2, SVG Export Plug-In . SVG Version: 6.00 Build 0)  -->
<svg version="1.1" id="Layer_1" xmlns="http://www.w3.org/2000/svg" xmlns:xlink="http://www.w3.org/1999/xlink" x="0px" y="0px"
	 viewBox="0 0 180 180" style="enable-background:new 0 0 180 180;" xml:space="preserve">
<style type="text/css">
	.st0{fill:#66C4B2;}
	.st1{fill:#999999;}
</style>
<g>
	<path class="st0" d="M126.88,28.93l20.89-20.89c2.29-2.29,1.17-6.22-1.98-6.93c-14.25-3.24-29.8,0.69-40.89,11.79
		c-1.68,1.68-3.19,3.47-4.54,5.33C109.8,20.14,118.77,23.76,126.88,28.93z"/>
	<path class="st0" d="M92.21,39.92c-0.56,6.09,0.14,12.27,2.1,18.12L78.42,73.93l27.36,27.36l15.74-15.74
		c6.07,2.11,12.5,2.84,18.83,2.22c-1.71-11.68-7.08-22.9-16.02-31.84C115.54,47.13,104.34,41.6,92.21,39.92z"/>
	<path class="st0" d="M62.58,89.77L32.85,119.5c2.77,6.04,6.62,11.61,11.46,16.45c4.64,4.64,9.95,8.37,15.71,11.11l29.92-29.92
		L62.58,89.77z"/>
	<path class="st0" d="M28.21,152.06c-4.77-4.77-8.86-10.04-12.22-15.7L5.67,146.68c-7.56,7.56-7.56,19.81,0,27.36l0,0
		c7.56,7.56,19.81,7.56,27.36,0l10.19-10.19C37.82,160.58,32.78,156.63,28.21,152.06z M24.97,166.27c-3.1,3.1-8.13,3.1-11.23,0
		c-3.1-3.1-3.1-8.13,0-11.23c3.1-3.1,8.13-3.1,11.23,0C28.07,158.14,28.07,163.17,24.97,166.27z"/>
	<path class="st0" d="M178.9,34.21c-0.72-3.16-4.65-4.27-6.93-1.98l-20.85,20.85c5.27,8.21,8.88,17.19,10.82,26.45
		c1.81-1.32,3.54-2.79,5.17-4.43C178.21,64.01,182.14,48.46,178.9,34.21z"/>
</g>
<path class="st1" d="M137.01,43.25c-29.05-29.05-76.32-29.05-105.37,0C17.56,57.32,9.81,76.04,9.81,95.94s7.75,38.61,21.82,52.69
	c14.53,14.53,33.61,21.79,52.69,21.79s38.16-7.26,52.69-21.79C166.06,119.57,166.06,72.3,137.01,43.25z M40.88,139.38
	c-11.6-11.6-18-27.03-18-43.44c0-14.34,4.88-27.93,13.85-38.87l86.46,86.46C99.08,163.25,63.36,161.87,40.88,139.38z M132.14,134.51
	l-86.4-86.4c11.21-9.06,24.89-13.59,38.58-13.59c15.73,0,31.47,5.99,43.44,17.97C150.16,74.89,151.62,110.41,132.14,134.51z"/>
</svg>
